<?xml version="1.0" encoding="utf-8"?>
<!-- Generator: Adobe Illustrator 25.4.1, SVG Export Plug-In . SVG Version: 6.00 Build 0)  -->
<svg version="1.1" id="Layer_1" xmlns="http://www.w3.org/2000/svg" xmlns:xlink="http://www.w3.org/1999/xlink" x="0px" y="0px"
	 viewBox="0 0 687 167" style="enable-background:new 0 0 687 167;" xml:space="preserve">
<style type="text/css">
	.st0{fill:#00752D;}
	.st1{fill:#FFFFFF;}
</style>
<rect x="1" y="-1" class="st0" width="686" height="168"/>
<g>
	<path class="st1" d="M617.1,80.6h23.3l5.5-26.8h-23.3l6.1-29.7h-34.1l-17.7,85.8c-1,4.9-1.5,8.8-1.3,12.2c0.2,4.1,1.7,7.9,4.7,11.3
		c2.7,3,5.7,5.2,8.8,6.4c3,1.2,6.7,1.7,11.1,1.7h26.5l5.3-25.7h-13.6c-3.3,0-5.9-0.6-7.1-1.7c-0.4-0.4-1.1-1-0.7-3.3L617.1,80.6z"/>
	<polygon class="st1" points="49.2,23.4 43.4,51.8 80.3,51.8 86.2,23.4 	"/>
	<path class="st1" d="M161.7,99.5l22.8,41.4h42.6l-26.3-46.3c5.2-2.9,9.7-6.5,12.1-8.5c4.8-4.1,11-13.7,12.7-22.1
		c2.3-11.2,0.3-20.9-6.1-28.7c-7.1-8.8-20.7-11.9-30.3-11.9h-87l-5.9,28.4h37.6h4.3l31.1-0.1c6,0,10.4,1,13.1,3
		c1.5,1.1,2.7,2.6,2,6.1c-0.7,3.2-3.1,5.8-7.5,8c-4.2,2.1-8.5,3.1-13.1,3.1h-34l2.7-11.5H94.4l-17,80.4h6.4h27.3h4.3l8.6-41.4H161.7
		z"/>
	<polygon class="st1" points="41.9,60.5 24.9,140.9 62.1,140.9 78.8,60.5 	"/>
	<path class="st1" d="M326.2,64.3c-8.9-7.7-21.9-11.6-38.6-11.6c-14.8,0-28.3,3.5-40.2,10.3c-13.7,7.8-22.1,18.7-24.9,32.3
		c-3.5,16.7,0.3,29.6,11.1,38.2c8.8,6.9,21.8,10.5,38.8,10.5c15.5,0,29-3.4,40-10.1c12.2-7.5,19.9-18.1,22.7-31.6l1-4.5
		C339,83.7,335.6,72.4,326.2,64.3 M297.1,95.6c-1.5,7.1-4.4,12.7-8.7,16.6c-4.2,3.8-9.6,5.7-16.6,5.7c-5.8,0-10-1.7-12.7-5.1
		c-2.8-3.5-3.5-8.2-2.3-14.3c1.2-5.5,3.9-10,8.5-13.5c4.7-3.6,9.9-5.4,15.9-5.4c6.2,0,10.6,1.5,13.4,4.7
		C297.3,87.2,298.1,90.8,297.1,95.6"/>
	<path class="st1" d="M563.5,64.3c-8.9-7.7-21.8-11.6-38.6-11.6c-14.8,0-28.3,3.5-40.2,10.3c-13.7,7.8-22.1,18.7-24.9,32.3
		c-3.5,16.7,0.3,29.6,11.1,38.2c8.8,6.9,21.9,10.5,38.8,10.5c15.6,0,29-3.4,40-10.1c12.3-7.5,19.9-18.1,22.7-31.6l0.9-4.5
		C576.3,83.7,573,72.4,563.5,64.3 M536.8,95.6c-1.5,7.2-4.4,12.7-8.7,16.6c-4.2,3.8-9.6,5.7-16.6,5.7c-5.8,0-10-1.7-12.7-5.1
		c-2.8-3.5-3.5-8.2-2.3-14.3c1.1-5.5,3.9-10,8.5-13.5c4.7-3.6,9.9-5.4,15.9-5.4c6.2,0,10.6,1.5,13.4,4.7
		C536.9,87.2,537.8,90.8,536.8,95.6"/>
	<path class="st1" d="M443.9,64.2c-9.2-7.6-22.1-11.5-38.5-11.5c-6.3,0-12.7,0.8-18.5,2l7.4-31.3h-36.2l-13.4,60.4
		c-0.4,2.1-4.3,20.3-4.2,27.6c0.1,8.6,4.1,16.7,10.9,22.1c8.8,6.9,21.8,10.5,38.8,10.5c15.5,0,29-3.4,40-10.1
		c12.3-7.5,19.9-18.1,22.7-31.6l0,0.2C453.1,101.4,458.9,76.6,443.9,64.2 M417.3,95.6c-1.5,7.2-4.4,12.7-8.7,16.6
		c-4.2,3.8-9.6,5.7-16.6,5.7c-5.8,0-10-1.7-12.7-5.1c-0.6-0.8-0.7-1.9-0.7-4.6c0.1-4.3,2.6-15.5,3.8-18.3c1-2.4,1.6-3.7,3.1-4.9
		c4.7-3.6,9.8-5.4,15.9-5.4c6.2,0,10.6,1.5,13.4,4.7C417.5,87.2,418.2,90.8,417.3,95.6"/>
	<path class="st1" d="M663.3,33.7c0,2.7-1,5-2.9,6.9c-1.9,1.9-4.2,2.9-6.9,2.9c-2.7,0-5-1-6.9-2.9c-1.9-1.9-2.9-4.2-2.9-6.9
		c0-2.7,1-4.9,2.9-6.9c1.9-1.9,4.2-2.9,6.9-2.9c2.7,0,5,1,6.9,2.9C662.4,28.7,663.3,31,663.3,33.7 M662,33.7c0-2.3-0.8-4.3-2.5-5.9
		c-1.6-1.6-3.6-2.5-5.9-2.5c-2.3,0-4.3,0.8-5.9,2.5c-1.6,1.6-2.5,3.6-2.5,5.9c0,2.3,0.8,4.3,2.4,5.9c1.6,1.6,3.6,2.4,5.9,2.4
		c2.3,0,4.3-0.8,5.9-2.5C661.1,38,662,36,662,33.7 M658.2,39.4h-1.8l-2.2-4.9H651v4.9h-1.7V28h4.8c1.3,0,2.3,0.3,2.9,1
		c0.6,0.7,1,1.4,1,2.2c0,0.6-0.2,1.2-0.5,1.7c-0.4,0.6-0.9,0.9-1.6,1.2L658.2,39.4z M651,33.1h2.9c0.8,0,1.3-0.2,1.7-0.6
		c0.4-0.4,0.6-0.8,0.6-1.4c0-0.6-0.2-1-0.6-1.3c-0.4-0.3-0.9-0.5-1.5-0.5H651V33.1z"/>
</g>
</svg>
